<svg width="89" height="89" viewBox="0 0 89 89" fill="none" xmlns="http://www.w3.org/2000/svg">
<circle cx="70.7661" cy="70.7662" r="5.96292" fill="black"/>
<path d="M29.0342 29.0342L74.563 66.2859L66.2859 74.563L29.0342 29.0342Z" fill="black" fill-opacity="0.6"/>
<rect x="2.29614" y="58.2441" width="10.137" height="0.596292" rx="0.298146" transform="rotate(10 2.29614 58.2441)" fill="black" stroke="black"/>
<rect x="1" y="70.1699" width="10.137" height="0.596292" rx="0.298146" fill="black" stroke="black"/>
<rect x="5.37793" y="46.3182" width="10.137" height="0.596292" rx="0.298146" transform="rotate(20 5.37793 46.3182)" fill="black" stroke="black"/>
<rect x="10.8389" y="35.585" width="10.137" height="0.596292" rx="0.298146" transform="rotate(30 10.8389 35.585)" fill="black" stroke="black"/>
<rect x="17.4832" y="25.448" width="10.137" height="0.596292" rx="0.298146" transform="rotate(40 17.4832 25.448)" fill="black" stroke="black"/>
<rect x="26.5012" y="17.0999" width="10.137" height="0.596292" rx="0.298146" transform="rotate(50 26.5012 17.0999)" fill="black" stroke="black"/>
<rect x="47.4749" y="5.17407" width="10.137" height="0.596292" rx="0.298146" transform="rotate(70 47.4749 5.17407)" fill="black" stroke="black"/>
<rect x="59.4277" y="2.19257" width="10.137" height="0.596292" rx="0.298146" transform="rotate(80 59.4277 2.19257)" fill="black" stroke="black"/>
<rect x="71.3625" y="1" width="10.137" height="0.596292" rx="0.298146" transform="rotate(90 71.3625 1)" fill="black" stroke="black"/>
<rect x="36.6975" y="9.9444" width="10.137" height="0.596292" rx="0.298146" transform="rotate(60 36.6975 9.9444)" fill="black" stroke="black"/>
</svg>
